<svg id="visual" viewBox="0 0 1000 540" width="1000" height="540" xmlns="http://www.w3.org/2000/svg" xmlns:xlink="http://www.w3.org/1999/xlink" version="1.1"><rect x="0" y="0" width="1000" height="540" fill="#3A725A"></rect><defs><linearGradient id="grad1_0" x1="46%" y1="100%" x2="100%" y2="0%"><stop offset="12.962962962962964%" stop-color="#3a725a" stop-opacity="1"></stop><stop offset="87.03703703703704%" stop-color="#3a725a" stop-opacity="1"></stop></linearGradient></defs><defs><linearGradient id="grad2_0" x1="0%" y1="100%" x2="54%" y2="0%"><stop offset="12.962962962962964%" stop-color="#3a725a" stop-opacity="1"></stop><stop offset="87.03703703703704%" stop-color="#3a725a" stop-opacity="1"></stop></linearGradient></defs><g transform="translate(1000, 540)"><path d="M-378 0C-369.1 -67.7 -360.1 -135.5 -327.4 -189C-294.6 -242.5 -238 -281.8 -179.5 -310.9C-121 -340 -60.5 -359 0 -378L0 0Z" fill="#b0d576"></path></g><g transform="translate(0, 0)"><path d="M378 0C352.1 56.5 326.2 113 297.9 172C269.7 231 239 292.6 189 327.4C139 362.1 69.5 370.1 0 378L0 0Z" fill="#b0d576"></path></g></svg>